<?xml version="1.0" encoding="utf-8"?>
<!-- Generator: Adobe Illustrator 20.1.0, SVG Export Plug-In . SVG Version: 6.00 Build 0)  -->
<svg version="1.1" id="Capa_1" xmlns="http://www.w3.org/2000/svg" xmlns:xlink="http://www.w3.org/1999/xlink" x="0px" y="0px"
	 viewBox="0 0 621.4 595.6" style="enable-background:new 0 0 621.4 595.6;" xml:space="preserve">
<title>Mesa de trabajo 1</title>
<path d="M611.4,0H159.6c-5.4-0.1-9.9,4.1-10,9.5c0,0.1,0,0.2,0,0.2v452.1c-0.1,5.4,4.1,9.9,9.5,10c0.2,0,0.3,0,0.5,0l0,0V325.2
	l9.3,2.6v-82h48.3v96.6L237,348V245.8h20.2c3.5,12,12.9,21.3,24.9,24.6v59.2c-0.1,5.4,4.1,9.9,9.5,10c0.2,0,0.3,0,0.5,0h59.2
	c3.5,12,12.9,21.3,24.9,24.6v20.2h-86v19.7h85.5v47.9h-85.5v19.7h321.3c5.4,0.1,9.9-4.1,10-9.5c0-0.2,0-0.3,0-0.5V9.8
	c0-5.4-4.4-9.8-9.8-9.8C611.6,0,611.5,0,611.4,0z M394.9,87.4H509c3.6,12.1,13.2,21.4,25.3,24.6V226h-20.2
	c-3.4-12-12.8-21.4-24.9-24.9v-59.2c0-5.4-4.4-9.8-9.8-9.8c-0.1,0-0.2,0-0.2,0h-59c-3.5-12.1-13.1-21.6-25.3-24.9V87.4z
	 M487.8,329.9v-59.5c12-3.4,21.4-12.8,24.9-24.9h21.6v114.1c-12,3.4-21.4,12.8-24.9,24.9H394.9v-20.2c12-3.4,21.4-12.8,24.9-24.9
	H479c5.4,0.3,10-3.9,10.2-9.3c0-0.2,0-0.3,0-0.5L487.8,329.9z M465.8,246.9c-6-6.7-5.5-16.9,1.1-23c6.7-6,16.9-5.5,23,1.1
	c6,6.7,5.5,16.9-1.1,23c-3,2.7-6.9,4.2-10.9,4.2c-4.1-0.4-8-2.4-10.7-5.6L465.8,246.9z M542.4,378.2c9,0,16.3,7.3,16.3,16.3
	s-7.3,16.3-16.3,16.3c-9,0-16.3-7.3-16.3-16.3C526.1,385.5,533.4,378.2,542.4,378.2c0.5-0.1,1.1-0.1,1.6,0H542.4z M544.1,92.9
	c-9,0-16.3-7.3-16.3-16.3s7.3-16.3,16.3-16.3s16.3,7.3,16.3,16.3C560.3,85.6,553,92.9,544.1,92.9L544.1,92.9z M401.9,141.9
	c0,9-7.3,16.3-16.3,16.3c-9,0-16.3-7.3-16.3-16.3s7.3-16.3,16.3-16.3C394.6,125.7,401.9,133,401.9,141.9L401.9,141.9z M217.2,226
	h-47.9V19.7h206.3v47.9H261.6c-5.4-19.2-25.2-30.3-44.4-25c-19.2,5.4-30.3,25.2-25,44.4c3.4,12.1,12.9,21.6,25,25V226z M227,92.9
	c-9,0-16.3-7.3-16.3-16.3S218,60.4,227,60.4c9,0,16.3,7.3,16.3,16.3l0,0C243.2,85.6,235.9,92.9,227,92.9z M256.9,225.3h-20V112
	c12-3.4,21.4-12.8,24.9-24.9h114.1v20.2c-12,3.4-21.4,12.8-24.9,24.9h-59.2c-5.4,0-9.8,4.4-9.8,9.8c0,0.1,0,0.2,0,0.2v59
	c-12,3.4-21.4,12.8-24.9,24.9L256.9,225.3z M280.2,246c-6-6.7-5.5-16.9,1.1-23c6.7-6,16.9-5.5,23,1.1c6,6.7,5.5,16.9-1.1,23
	c-3,2.7-6.9,4.2-10.9,4.2c-5,0.6-9.9-1.1-13.5-4.6L280.2,246z M351.5,319.2H302v-48.8c19.2-5,30.8-24.7,25.8-43.9
	c-3.3-12.6-13.1-22.5-25.8-25.8v-48.8h49.2c5,19.2,24.7,30.8,43.9,25.8c12.6-3.3,22.5-13.1,25.8-25.8h49.2v49.2
	c-19.2,5-30.8,24.7-25.8,43.9c3.3,12.6,13.1,22.5,25.8,25.8v49.2h-49.9c-5-19.2-24.7-30.8-43.9-25.8c-12.6,3.3-22.5,13.1-25.8,25.8
	L351.5,319.2z M374.7,339.9c-6-6.7-5.5-16.9,1.1-23s16.9-5.5,23,1.1s5.5,16.9-1.1,23c-3,2.7-6.9,4.2-10.9,4.2
	c-4.9,0.5-9.8-1.2-13.2-4.6L374.7,339.9z M602.8,451.4H394.9v-47.2H509c5.5,19.1,25.5,30.1,44.6,24.6c19.1-5.5,30.1-25.5,24.6-44.6
	c-3.4-11.9-12.7-21.1-24.6-24.6V245.8h48.1L602.8,451.4z M602.8,225.3h-49V112c19.1-5.5,30.1-25.5,24.6-44.6s-25.5-30.1-44.6-24.6
	c-11.9,3.4-21.1,12.7-24.6,24.6H394.9V19.7h206.8L602.8,225.3z"/>
<ellipse cx="206.3" cy="497.6" rx="14.9" ry="22.3"/>
<ellipse cx="235.8" cy="425.8" rx="13.2" ry="20"/>
<path d="M288.8,348.5l-135-40.4h-1.4c-1.8-0.3-3.6-0.3-5.3,0h-1.6l-29.3,9.1l-23.2,7.4L23.2,345l0,0l-12.8,3.5
	C4.2,350.4,0,356.1,0,362.6v178.2c-0.1,6.5,4.2,12.3,10.5,14.2l135,40.7h4.2h4.2l135-40.7c6.2-1.9,10.4-7.7,10.5-14.2V362.9
	C299.3,356.3,295,350.4,288.8,348.5z M43,525c-7.2,0-13-8.8-13-19.5c0-10.7,5.8-19.5,13-19.5s13,8.8,13,19.5
	C56,516.2,49.9,525,43,525z M73.6,469.5c-7.9,0-14.4-9.8-14.4-21.6s6.5-21.6,14.4-21.6S88,436,88,447.9S81.5,469.5,73.6,469.5z
	 M108.7,414.4c-8.4,0-14.9-10-14.9-23.2s6.7-23.2,14.9-23.2s14.9,10,14.9,23.2S116.2,414.4,108.7,414.4z M269.9,530.6L164.5,562
	V342.2L269.9,374L269.9,530.6z"/>
</svg>
