<?xml version="1.0" encoding="utf-8"?>
<!-- Generator: Adobe Illustrator 20.1.0, SVG Export Plug-In . SVG Version: 6.00 Build 0)  -->
<svg version="1.1" id="Capa_1" xmlns="http://www.w3.org/2000/svg" xmlns:xlink="http://www.w3.org/1999/xlink" x="0px" y="0px"
	 viewBox="0 0 157.2 178.2" style="enable-background:new 0 0 157.2 178.2;" xml:space="preserve">
<title>Mesa de trabajo 1</title>
<rect x="5.8" y="90.1" width="151.3" height="88.1"/>
<polygon points="36.6,83.5 36.4,83.9 61.1,83.9 61.4,83.5 77.1,60.2 52.2,60.2 "/>
<polygon points="85.7,83.5 85.4,83.9 110.2,83.9 110.5,83.5 126.2,60.2 101.4,60.2 "/>
<polygon points="5.8,83.9 12.1,83.9 12.3,83.5 28,60.2 5.8,60.2 5.8,83.5 "/>
<polygon points="134.5,83.9 157.2,83.9 157.2,83.5 157.2,60.2 150.5,60.2 134.8,83.5 "/>
<polygon points="29.6,29.8 50.9,48.8 74.9,42.7 53.6,23.7 "/>
<polygon points="77.1,17.7 98.4,36.7 122.4,30.6 101.1,11.6 "/>
<polygon points="124.7,5.6 146,24.6 152.5,22.9 146.6,0 "/>
<polygon points="6,35.8 0,37.3 5.8,60.2 27.3,54.8 "/>
</svg>
