<?xml version="1.0" encoding="utf-8"?>
<!-- Generator: Adobe Illustrator 20.1.0, SVG Export Plug-In . SVG Version: 6.00 Build 0)  -->
<svg version="1.1" id="Capa_1" xmlns="http://www.w3.org/2000/svg" xmlns:xlink="http://www.w3.org/1999/xlink" x="0px" y="0px"
	 viewBox="0 0 337.1 367.7" style="enable-background:new 0 0 337.1 367.7;" xml:space="preserve">
<title>Mesa de trabajo 1</title>
<g>
	<path d="M10.5,140.3c5-10.2,7.4-21.6,6.9-33C16,84.8,27.5,63.4,47.1,52.2c3.2-1.6,6.5-2.8,9.9-3.6c4.9,0,6.9-2,8.9-5.9
		c5.8-16.9,23.5-26.6,40.9-22.4c2,0,4.6-3,7.3-5.6c5-6.6,12.3-11.1,20.5-12.5h2.3c12.1-1,24,3.1,33,11.2c2.9-3.5,6.4-6.5,10.2-8.9
		c6.6-4.8,15.3-5.7,22.8-2.3c8,2,15.1,6.3,20.5,12.5c3.6,3.6,5.9,5.9,7.9,5.6c17.5-4.6,35.6,5,41.6,22.1c2,4,4,4.6,8.9,5.9
		c3.4,0.9,6.7,2.1,9.9,3.6c19.6,11.2,31.1,32.6,29.7,55.1c-0.5,11.4,1.9,22.8,6.9,33c11.8,19.1,11.8,43.3,0,62.4
		c-2,3-4.6,6.3-7.6,9.9c-3,3.6-14.8,18.2-14.5,23.4c0.8,24.4-11.9,47.2-33,59.4c-4.3,2.3-4.3,2.3-4.3,8.9c-0.8,3.6-2,7.2-3.6,10.6
		c-3.7,7.7-10.6,13.5-18.8,15.8c-5.9,2.3-8.3,3-8.9,9.6c-0.2,15.2-12.5,27.5-27.7,27.7h-2c-17-2.6-31.4-13.9-38-29.7
		c-6.7,15.7-21.1,26.8-37.9,29.4h-2c-15.2-0.2-27.5-12.5-27.7-27.7c0-6.3-3.3-7.3-8.9-9.6c-9.5-1.3-17.9-7-22.4-15.5
		c-1.5-3.4-2.6-6.9-3.3-10.6c0-5.3-2-6.9-5.3-8.9c-21.1-12.2-33.8-35-33-59.4c0-5.3-8.9-16.5-14.5-23.4c-5.6-6.9-5.6-7.3-7.6-9.9
		C-3.5,182.7-2.2,158.7,10.5,140.3z M208.5,355.1c9.2,0,15.2-5.6,16.5-17.2c1-9.3,7.7-17,16.8-19.1c5.3-1.2,9.8-4.7,12.2-9.6
		c1.2-2.5,2-5.2,2.6-7.9l0,0c-0.3-1-0.3-2,0-3c0-17.1-13.9-31-31-31c-3.4,0.8-6.7-1.3-7.5-4.7s1.3-6.7,4.7-7.5
		c0.9-0.2,1.9-0.2,2.9,0c18.9,0,35.6,12.3,41.3,30.4h2c15.9-10.5,25.3-28.5,24.8-47.5c0-9.9,8.9-21.8,17.2-33c0.7-3.6,3.3-6.6,5-8.9
		c9.2-15,9.2-33.9,0-48.8c-6.6-12.6-9.7-26.7-8.9-40.9c1.2-17.7-7.6-34.5-22.8-43.6c-2.4-1.1-5-2-7.6-2.6c-2.6-0.7-5.2-1.7-7.6-3
		l0,0c-13.7,0-24.8,11.1-24.8,24.7c0.8,3.4-1.3,6.7-4.7,7.5c-3.4,0.8-6.7-1.3-7.5-4.7c-0.2-0.9-0.2-1.9,0-2.9
		c-0.1-17.4,12-32.6,29-36.3c-3.5-9.3-13.4-14.5-23.1-12.2h-7.6c-6.9-0.6-13.2-4.2-17.2-9.9c-3.8-4.7-9-7.9-14.8-9.2h-2l0,0
		c-3.3-0.4-6.6,0.4-9.2,2.3c-5.1,2.2-9.2,6.2-11.6,11.2v48.5c24.2,3.6,42.2,24.4,42.2,48.8c-0.2,20.4,16.2,37.1,36.6,37.3
		c0.1,0,0.2,0,0.3,0c3.4-0.8,6.7,1.3,7.5,4.7c0.8,3.4-1.3,6.7-4.7,7.5c-0.9,0.2-1.9,0.2-2.9,0c-27.3,0-49.5-22.2-49.5-49.5
		c0.1-18.2-13.1-33.7-31-36.6v222.1c-1.4,20.9,12.6,39.8,33,44.6H208.5z M20.7,196.1c0,2.3,4,5.6,6.9,8.9l7.6,9.6
		c7-19.8,25.8-33.1,46.9-33c20.4-0.2,36.8-16.9,36.6-37.3c0-0.2,0-0.4,0-0.7c0.8-3.4,4.2-5.5,7.5-4.7c2.3,0.5,4.1,2.4,4.7,4.7
		c0,27.3-22.2,49.5-49.5,49.5C61,193.3,44.6,210,44.8,230.4c0,0.3,0,0.7,0,1c-0.1,0-0.2,0-0.3,0c0.2,1.5,0.2,3.1,0,4.6
		c-0.4,19.6,9.7,38,26.4,48.2v1.3c5.6-18.1,22.3-30.4,41.3-30.4c3.4-0.8,6.7,1.3,7.5,4.7c0.8,3.4-1.3,6.7-4.7,7.5
		c-0.9,0.2-1.9,0.2-2.9,0c-16.5,0.3-29.8,13.5-30.4,30c0.3,1,0.3,2,0,3l0,0c0.6,2.7,1.5,5.4,2.6,7.9c2.4,4.9,6.9,8.4,12.2,9.6
		c9.1,2.2,15.8,9.8,16.8,19.1c0,11.6,7.6,17.5,16.5,17.2c20.5-4.8,34.5-23.8,33-44.9V26.5c0-4.6-8.9-11.5-21.8-12.2h-4.3
		c-5.6,0-9.2,3.3-14.2,8.9c-3.7,5.7-9.7,9.5-16.5,10.2c-16.5,0-22.1,0-28.7,13.5c13.6,3.5,23.1,15.7,23.1,29.7
		c-0.8,3.4-4.2,5.5-7.5,4.7c-2.3-0.5-4.1-2.4-4.7-4.7C88.7,66.5,81,58,70.9,57.5l0,0c-2.5,1.3-5.2,2.3-7.9,3
		c-2.6,0.6-5.2,1.5-7.6,2.6c-15.2,9.1-24,25.9-22.8,43.6c0.8,14.2-2.3,28.3-8.9,40.9C13.7,161.9,12.5,180.6,20.7,196.1z"/>
	<path d="M189.7,172.3c2.4-2.3,6.2-2.3,8.6,0c16.3,15.7,18.3,41.1,4.6,59.1c13.7,17.7,12.2,42.9-3.6,58.7c-1.8,3-5.6,4-8.6,2.2
		c-3-1.8-4-5.6-2.2-8.6c0.5-0.9,1.3-1.7,2.2-2.2c12.4-12.8,12.4-33.1,0-45.9c-2.3-2.4-2.3-6.2,0-8.6c12.4-12.8,12.4-33.1,0-45.9
		c-2.7-2.1-3.2-6.1-1.1-8.8C189.6,172.4,189.7,172.3,189.7,172.3z"/>
	<path d="M136.9,193.1c2.3,2.4,2.3,6.2,0,8.6c-11.5,11.5-11.5,30.1,0,41.5c0,0,0,0,0,0c16.2,16.3,16.2,42.7,0,59.1
		c-3,1.8-6.8,0.7-8.6-2.2c-1.1-2-1.1-4.4,0-6.3c11.5-11.5,11.5-30.1,0-41.5c0,0,0,0,0,0c-16.2-16.3-16.2-42.7,0-59.1
		C130.7,190.8,134.5,190.8,136.9,193.1z"/>
	<path d="M58.3,134.4c15.6,2.2,30.1-8.3,33-23.8c4.5-22.4,26.1-37,48.5-33c3.3,1.1,5,4.7,3.9,7.9c-0.9,2.5-3.2,4.3-5.9,4.3
		c-15.6-2.8-30.7,7.2-34,22.8c-4.2,19.4-21.4,33.1-41.3,33h-7.3c-3.3-1.1-5-4.7-3.9-7.9c0.9-2.5,3.2-4.3,5.9-4.3L58.3,134.4z"/>
	<path d="M268.9,141c-10.4,0-19.7-6.4-23.4-16.2c-1.8-3-0.8-6.8,2.1-8.6c3-1.8,6.8-0.8,8.6,2.1c0.4,0.7,0.7,1.4,0.8,2.2
		c2.3,6.5,9.5,10,16,7.7c0.1,0,0.1,0,0.2-0.1c12.8-5.2,27.5,1,32.6,13.9c0.1,0.3,0.2,0.6,0.4,1c0.9,3.3-1,6.6-4.3,7.6h-3.3
		c-2.6,0-5-1.5-5.9-4c-2.3-6.5-9.5-10-16-7.7c-0.1,0-0.1,0-0.2,0.1C274.1,140,271.5,140.7,268.9,141z"/>
	<path d="M248.1,235.7c6.5-2.3,10-9.5,7.7-16c0-0.1,0-0.1-0.1-0.2l0,0c-5.2-12.8,1-27.5,13.9-32.6c0.3-0.1,0.6-0.2,1-0.4
		c3.3-1.2,6.9,0.5,8.1,3.8s-0.5,6.9-3.8,8.1c-6.5,2.3-10,9.5-7.7,16c0,0.1,0,0.1,0.1,0.2l0,0c5.2,12.8-1,27.5-13.9,32.6
		c-0.3,0.1-0.6,0.2-1,0.4h-2c-3.4-0.4-5.9-3.5-5.5-7c0.3-2.1,1.6-4,3.5-4.9L248.1,235.7z"/>
</g>
</svg>
