<svg id="Capa_1" data-name="Capa 1" xmlns="http://www.w3.org/2000/svg" viewBox="0 0 25.39 18.34"><defs><style>.cls-1{fill:#b7cad3;}</style></defs><title>Mesa de trabajo 1</title><path class="cls-1" d="M25,9H23.27c-.16,0-.42,0-.42-.17V7.13c0-.16,0-.36-.15-.36H21c-.16,0-.39,0-.39-.2V4.84c0-.16,0-.33-.18-.33H18.7c-.16,0-.36-.08-.36-.23V2.55a.25.25,0,0,0-.24-.28H16.37a.29.29,0,0,0-.29.28V4.27c0,.16-.07.24-.23.24H9.52c-.16,0-.21-.09-.21-.24V2.56A.31.31,0,0,0,9,2.27H7.32a.26.26,0,0,0-.26.28V4.3c0,.16-.2.22-.36.22H5c-.16,0-.17.19-.17.35V6.58c0,.16-.24.19-.4.19H2.67c-.16,0-.42.22-.42.38V8.88c0,.16,0,.15-.15.15H.41A.55.55,0,0,0,0,9.44V15.7a.52.52,0,0,0,.41.39h1.7c.16,0,.15-.23.15-.39v-4c0-.16.26-.15.41-.15H4.42c.16,0,.38,0,.38.15v4c0,.16.08.28.23.28H6.75a.3.3,0,0,0,.3-.28V14c0-.16,0-.18.19-.18H18.15c.16,0,.28.08.28.23,0,.58,0,1.16,0,1.73a.29.29,0,0,0,.28.3h1.72c.16,0,.17-.21.17-.36v-4c0-.16.24-.15.39-.15h1.75c.16,0,.39,0,.39.15v4c0,.16,0,.39.17.39H25a.52.52,0,0,0,.41-.39V9.43A.53.53,0,0,0,25,9ZM9.31,8.85C9.31,9,9.13,9,9,9H7.25c-.16,0-.2,0-.2-.18V7.13c0-.16,0-.36.2-.36H9a.4.4,0,0,1,.33.36C9.31,7.7,9.31,8.27,9.31,8.85Zm9,0c0,.16,0,.17-.2.17H16.42c-.16,0-.33,0-.33-.17V7.13a.41.41,0,0,1,.33-.36h1.72c.16,0,.2.21.2.36Z"/><path class="cls-1" d="M11.26,16h-4a.28.28,0,0,0-.28.28c0,.56,0,1.17,0,1.73a.31.31,0,0,0,.28.32h4a.39.39,0,0,0,.32-.35V16.31A.3.3,0,0,0,11.26,16Z"/><path class="cls-1" d="M18.25,16s-.07,0-.11,0c-1.34,0-2.67,0-4,0H14a.2.2,0,0,0-.18.22V18a.39.39,0,0,0,.33.35h4c.16,0,.2-.19.2-.35V16.28C18.34,16.13,18.32,16,18.25,16Z"/><path class="cls-1" d="M5,2.26H6.7A.28.28,0,0,0,7,2C7,1.42,7,.85,7,.28A.28.28,0,0,0,6.69,0H5C4.83,0,4.8.13,4.8.29V2C4.8,2.14,4.83,2.26,5,2.26Z"/><path class="cls-1" d="M18.66,2.27h1.67A.26.26,0,0,0,20.6,2V.28c0-.16,0-.28-.19-.28h-1.7c-.16,0-.37.13-.37.28V2A.32.32,0,0,0,18.66,2.27Z"/></svg>