<?xml version="1.0" encoding="utf-8"?>
<!-- Generator: Adobe Illustrator 20.1.0, SVG Export Plug-In . SVG Version: 6.00 Build 0)  -->
<svg version="1.1" id="Capa_1" xmlns="http://www.w3.org/2000/svg" xmlns:xlink="http://www.w3.org/1999/xlink" x="0px" y="0px"
	 viewBox="0 0 70.1 76.3" style="enable-background:new 0 0 70.1 76.3;" xml:space="preserve">
<g>
	<title>Mesa de trabajo 1</title>
	<path d="M42.9,47.3c0-1.6-0.6-3.2-1.8-4.3c-0.3-0.7,0-1.4,0.6-1.7c0.4-0.2,0.8-0.2,1.2,0c3.4,3.4,3.4,8.9,0,12.3
		c-0.6,0.4-1.4,0.2-1.8-0.5c-0.2-0.4-0.2-0.9,0-1.3C42.3,50.6,43,49,42.9,47.3z"/>
	<path d="M40.6,16.9c4.7-0.8,9.2,2.2,10.1,6.9c0.6,3.2,3.6,5.4,6.9,4.9c0.7,0,1.3,0.6,1.3,1.3c0,0.6-0.4,1.1-0.9,1.2h-1.5
		c-4.1,0-7.7-2.8-8.6-6.9c-0.6-3.2-3.6-5.4-6.9-4.9c-0.7,0-1.3-0.6-1.3-1.3C39.8,17.5,40.1,17,40.6,16.9z"/>
	<path d="M34.9,68.7c1.2,0,2.3,0.6,2.9,1.6c1.2,2.2,3.6,3.6,6.2,3.5c1.5-0.5,2.5-1.9,2.5-3.5c0.2-1.9,1.6-3.5,3.5-4
		c1.1-0.3,2-1,2.5-2c0.2-0.4,0.3-0.8,0.4-1.2l0,0c0-3.6-2.9-6.5-6.5-6.5c-0.7,0.2-1.4-0.3-1.6-1c-0.2-0.7,0.3-1.4,1-1.6
		c0.2,0,0.4,0,0.6,0c3.6,0,6.9,2.2,8.3,5.6l0.7-0.4c3.3-2.2,5.3-5.9,5.2-9.9l0,0l0,0c0.3-4.2-3-7.9-7.2-8.2c-0.2,0-0.3,0-0.5,0
		c-5.7,0-10.3-4.6-10.3-10.3c-0.2-0.7,0.3-1.4,1-1.6c0.7-0.2,1.4,0.3,1.6,1c0,0.2,0,0.4,0,0.6c0,4.2,3.5,7.7,7.8,7.6c0,0,0,0,0,0
		c4.3-0.1,8.2,2.4,9.8,6.3l1.4-2.3c0.5-0.8,1.1-1.4,1.4-1.9c1.9-3.1,1.9-7,0-10.2c-1.4-2.6-2-5.6-1.9-8.5c0.3-3.7-1.6-7.2-4.7-9.1
		c-0.5-0.2-1-0.4-1.6-0.5h-0.8c-0.2,0.4-0.6,0.7-1.1,0.7c-2.1,0-3.8,1.7-3.8,3.8c-0.2,0.7-0.9,1.1-1.6,1c-0.5-0.1-0.9-0.5-1-1
		c0-3.1,2.2-5.8,5.3-6.3v-0.5C53.2,7.6,52.3,7,49.9,7h-1.6c-1.6,0-3.1-0.8-4.1-2.1c-0.8-1-1.9-1.6-3.1-1.9h-0.4l0,0
		c-1.2,0-2.4,0.5-3.3,1.4c-1,0.8-2.4,1-3.6,0.5v-3l0.5,0.3c0.3,0.2,0.7,0.2,1,0c1.7-2,4.5-2.6,6.9-1.6c1.7,0.4,3.1,1.3,4.3,2.6
		c0.8,0.8,1.2,1.2,1.6,1.2c3.6-1,7.4,1,8.7,4.6c0.4,0.8,0.8,1,1.9,1.2c0.7,0.2,1.4,0.4,2.1,0.8c4.1,2.3,6.5,6.8,6.2,11.5
		c-0.1,2.4,0.4,4.7,1.4,6.9c2.5,4,2.5,9,0,13c-0.4,0.6-1,1.3-1.6,2.1s-3.1,3.8-3,4.9c0.2,5.1-2.5,9.8-6.9,12.4
		c-0.9,0.4-0.9,0.4-0.9,1.8c-0.2,0.8-0.4,1.5-0.8,2.2c-0.8,1.6-2.2,2.8-3.9,3.3c-1.2,0.5-1.7,0.6-1.9,2c-0.1,2.6-1.9,4.9-4.5,5.6
		h-1.2c-3.2-0.2-6-2-7.6-4.7c-0.3-0.4-0.8-0.5-1.2-0.3c-0.1,0.1-0.2,0.2-0.3,0.3L34,72.2v-3.3C34.3,68.8,34.6,68.7,34.9,68.7z"/>
	<path d="M33.6,1.8c-1.5-1.1-3.4-1.7-5.2-1.7h-0.6c-1.7,0.3-3.2,1.2-4.3,2.6C23,3.3,22.4,3.8,22,3.8c-3.6-1-7.4,1-8.7,4.6
		c-0.4,0.8-0.8,1-1.9,1.2c-0.7,0.2-1.4,0.4-2.1,0.8C5.4,12.7,3,17.2,3.3,21.9c0.1,2.4-0.4,4.7-1.4,6.9c-2.5,4-2.5,9,0,13
		c0.4,0.6,1,1.3,1.6,2.1s3.1,3.8,3,4.9c-0.2,5.1,2.5,9.8,6.9,12.4c0.7,0.3,0.8,0.8,1.1,1.9c0.1,0.8,0.4,1.5,0.7,2.2
		c0.8,1.6,2.2,2.8,3.9,3.3c1.2,0.5,1.7,0.6,1.9,2c0.1,2.6,1.9,4.9,4.5,5.6c3.3,0.3,6.5-1.2,8.3-4"/>
</g>
</svg>
