<?xml version="1.0" encoding="utf-8"?>
<!-- Generator: Adobe Illustrator 20.1.0, SVG Export Plug-In . SVG Version: 6.00 Build 0)  -->
<svg version="1.1" id="Capa_1" xmlns="http://www.w3.org/2000/svg" xmlns:xlink="http://www.w3.org/1999/xlink" x="0px" y="0px"
	 viewBox="0 0 70.1 76.3" style="enable-background:new 0 0 70.1 76.3;" xml:space="preserve">
<g>
	<title>Mesa de trabajo 1</title>
	<path d="M29,51.8c0.2,0.4,0.2,0.9,0,1.3c-0.4,0.6-1.2,0.8-1.8,0.5c-3.4-3.4-3.4-8.9,0-12.3c0.4-0.2,0.8-0.2,1.2,0
		c0.7,0.3,0.9,1.1,0.6,1.7c-1.1,1.1-1.8,2.7-1.8,4.3C27.2,49,27.8,50.6,29,51.8z"/>
	<path d="M30.4,18.1c0,0.7-0.6,1.3-1.3,1.3c-3.2-0.5-6.3,1.7-6.9,4.9c-0.9,4-4.5,6.9-8.6,6.9h-1.5c-0.5-0.2-0.9-0.7-0.9-1.2
		c0-0.7,0.6-1.3,1.3-1.3c3.2,0.5,6.3-1.7,6.9-4.9c0.9-4.7,5.4-7.7,10.1-6.9C30,17,30.3,17.5,30.4,18.1z"/>
	<path d="M36.1,68.9v3.3l-0.5-0.6c-0.1-0.1-0.2-0.2-0.3-0.3c-0.4-0.3-1-0.1-1.2,0.3c-1.6,2.7-4.5,4.5-7.6,4.7h-1.2
		c-2.6-0.7-4.4-3-4.5-5.6c-0.1-1.4-0.6-1.5-1.9-2c-1.7-0.5-3.1-1.7-3.9-3.3c-0.3-0.7-0.6-1.4-0.8-2.2c0-1.4,0-1.4-0.9-1.8
		c-4.4-2.5-7-7.3-6.9-12.4c0.1-1.1-2.4-4.1-3-4.9s-1.2-1.4-1.6-2.1c-2.5-4-2.5-9,0-13c1-2.1,1.5-4.5,1.4-6.9
		C3,17.6,5.4,13.1,9.5,10.8c0.7-0.3,1.3-0.6,2.1-0.8c1-0.3,1.4-0.4,1.9-1.2c1.2-3.6,5-5.6,8.7-4.6c0.4,0.1,0.9-0.4,1.6-1.2
		c1.1-1.3,2.6-2.2,4.3-2.6c2.4-1,5.2-0.3,6.9,1.6c0.3,0.2,0.7,0.2,1,0l0.5-0.3v3c-1.2,0.6-2.6,0.4-3.6-0.5c-0.9-0.9-2.1-1.4-3.3-1.4
		l0,0h-0.4c-1.2,0.3-2.3,1-3.1,1.9C24.9,6.2,23.4,7,21.8,7h-1.6c-2.3,0-3.3,0.6-4.5,3.2v0.5c3.1,0.6,5.3,3.2,5.3,6.3
		c-0.1,0.5-0.5,0.9-1,1c-0.7,0.2-1.4-0.3-1.6-1c0-2.1-1.7-3.8-3.8-3.8c-0.5,0-0.9-0.3-1.1-0.7h-0.8c-0.5,0.1-1.1,0.3-1.6,0.5
		c-3.2,1.9-5,5.4-4.7,9.1c0.2,3-0.5,5.9-1.9,8.5c-1.9,3.1-1.9,7,0,10.2c0.3,0.5,0.9,1.1,1.4,1.9l1.4,2.3c1.6-3.9,5.6-6.5,9.8-6.3
		c0,0,0,0,0,0c4.2,0,7.7-3.4,7.8-7.6c0-0.2,0-0.4,0-0.6c0.2-0.7,0.9-1.1,1.6-1c0.7,0.2,1.1,0.9,1,1.6c0,5.7-4.6,10.3-10.3,10.3
		c-0.2,0-0.3,0-0.5,0c-4.2,0.3-7.5,3.9-7.2,8.2l0,0l0,0c-0.1,4,1.8,7.7,5.2,9.9l0.7,0.4c1.4-3.4,4.7-5.6,8.3-5.6c0.2,0,0.4,0,0.6,0
		c0.7,0.2,1.1,0.9,1,1.6c-0.2,0.7-0.9,1.1-1.6,1c-3.6,0-6.5,2.9-6.5,6.5l0,0c0.1,0.4,0.2,0.8,0.4,1.2c0.5,1,1.4,1.7,2.5,2
		c1.9,0.5,3.3,2,3.5,4c0,1.6,1,3,2.5,3.5c2.6,0.1,4.9-1.3,6.2-3.5c0.6-1,1.7-1.6,2.9-1.6C35.5,68.7,35.8,68.8,36.1,68.9z"/>
	<path d="M36.5,72c1.8,2.8,5,4.3,8.3,4c2.6-0.7,4.4-3,4.5-5.6c0.1-1.4,0.6-1.5,1.9-2c1.7-0.5,3.1-1.7,3.9-3.3
		c0.3-0.7,0.5-1.4,0.7-2.2c0.3-1.1,0.4-1.5,1.1-1.9c4.4-2.5,7-7.3,6.9-12.4c-0.1-1.1,2.4-4.1,3-4.9s1.2-1.4,1.6-2.1
		c2.5-4,2.5-9,0-13c-1-2.1-1.5-4.5-1.4-6.9c0.3-4.7-2.1-9.1-6.2-11.5c-0.7-0.3-1.3-0.6-2.1-0.8c-1-0.3-1.4-0.4-1.9-1.2
		c-1.2-3.6-5-5.6-8.7-4.6c-0.4,0-1-0.5-1.5-1.2c-1-1.4-2.6-2.3-4.3-2.6h-0.6c-1.9,0.1-3.7,0.7-5.2,1.7"/>
</g>
</svg>
